<mxfile modified="2021-08-12T12:30:45.719Z" host="app.diagrams.net" agent="5.0 (Macintosh; Intel Mac OS X 10_15_7) AppleWebKit/605.1.15 (KHTML, like Gecko) Version/14.1.2 Safari/605.1.15" etag="-Zy9eH-VdLbzFQKRv9ri" version="14.9.3" type="github">
  <diagram id="Ht1M8jgEwFfnCIfOTk4-" name="Page-1">
    <mxGraphModel dx="1173" dy="685" grid="1" gridSize="10" guides="1" tooltips="1" connect="1" arrows="1" fold="1" page="1" pageScale="1" pageWidth="1169" pageHeight="827" math="0" shadow="0">
      <root>
        <mxCell id="0" />
        <mxCell id="1" parent="0" />
        <mxCell id="UEzPUAAOIrF-is8g5C7q-130" style="edgeStyle=orthogonalEdgeStyle;rounded=0;orthogonalLoop=1;jettySize=auto;html=1;startArrow=open;startFill=0;endArrow=open;endFill=0;strokeWidth=2;strokeColor=#808080;" parent="1" target="UEzPUAAOIrF-is8g5C7q-116" edge="1">
          <mxGeometry relative="1" as="geometry">
            <Array as="points">
              <mxPoint x="700" y="352" />
              <mxPoint x="700" y="53" />
            </Array>
            <mxPoint x="470" y="352" as="sourcePoint" />
          </mxGeometry>
        </mxCell>
        <mxCell id="UEzPUAAOIrF-is8g5C7q-131" style="edgeStyle=orthogonalEdgeStyle;rounded=0;orthogonalLoop=1;jettySize=auto;html=1;startArrow=open;startFill=0;endArrow=open;endFill=0;strokeWidth=2;strokeColor=#808080;" parent="1" edge="1">
          <mxGeometry relative="1" as="geometry">
            <Array as="points">
              <mxPoint x="720.5" y="361.5" />
              <mxPoint x="720.5" y="162.5" />
            </Array>
            <mxPoint x="470" y="362" as="sourcePoint" />
            <mxPoint x="800.5000000000002" y="162.5" as="targetPoint" />
          </mxGeometry>
        </mxCell>
        <mxCell id="UEzPUAAOIrF-is8g5C7q-132" style="edgeStyle=orthogonalEdgeStyle;rounded=0;orthogonalLoop=1;jettySize=auto;html=1;startArrow=open;startFill=0;endArrow=open;endFill=0;strokeWidth=2;strokeColor=#808080;" parent="1" edge="1">
          <mxGeometry relative="1" as="geometry">
            <Array as="points">
              <mxPoint x="760" y="372" />
              <mxPoint x="760" y="280" />
            </Array>
            <mxPoint x="470" y="372" as="sourcePoint" />
            <mxPoint x="800.5000000000002" y="280" as="targetPoint" />
          </mxGeometry>
        </mxCell>
        <mxCell id="UEzPUAAOIrF-is8g5C7q-133" style="edgeStyle=orthogonalEdgeStyle;rounded=0;orthogonalLoop=1;jettySize=auto;html=1;startArrow=open;startFill=0;endArrow=open;endFill=0;strokeWidth=2;strokeColor=#808080;" parent="1" edge="1">
          <mxGeometry relative="1" as="geometry">
            <Array as="points">
              <mxPoint x="760.5" y="381.5" />
              <mxPoint x="760.5" y="415.5" />
            </Array>
            <mxPoint x="470" y="382" as="sourcePoint" />
            <mxPoint x="800.5000000000002" y="415.5" as="targetPoint" />
          </mxGeometry>
        </mxCell>
        <mxCell id="UEzPUAAOIrF-is8g5C7q-134" style="edgeStyle=orthogonalEdgeStyle;rounded=0;orthogonalLoop=1;jettySize=auto;html=1;startArrow=open;startFill=0;endArrow=open;endFill=0;strokeWidth=2;strokeColor=#808080;entryX=0;entryY=0.5;entryDx=0;entryDy=0;entryPerimeter=0;" parent="1" source="QBk_AV415ZBRU6Lw4hZX-2" target="QBk_AV415ZBRU6Lw4hZX-3" edge="1">
          <mxGeometry relative="1" as="geometry">
            <Array as="points">
              <mxPoint x="320" y="377" />
              <mxPoint x="320" y="377" />
            </Array>
            <mxPoint x="380" y="377" as="targetPoint" />
          </mxGeometry>
        </mxCell>
        <mxCell id="UEzPUAAOIrF-is8g5C7q-135" style="edgeStyle=orthogonalEdgeStyle;rounded=0;orthogonalLoop=1;jettySize=auto;html=1;startArrow=open;startFill=0;endArrow=open;endFill=0;strokeWidth=2;strokeColor=#808080;entryX=0;entryY=0.5;entryDx=0;entryDy=0;entryPerimeter=0;" parent="1" target="QBk_AV415ZBRU6Lw4hZX-28" edge="1">
          <mxGeometry relative="1" as="geometry">
            <Array as="points">
              <mxPoint x="500" y="390" />
              <mxPoint x="721" y="390" />
              <mxPoint x="721" y="521" />
            </Array>
            <mxPoint x="470" y="390" as="sourcePoint" />
          </mxGeometry>
        </mxCell>
        <mxCell id="UEzPUAAOIrF-is8g5C7q-136" style="edgeStyle=orthogonalEdgeStyle;rounded=0;orthogonalLoop=1;jettySize=auto;html=1;startArrow=open;startFill=0;endArrow=open;endFill=0;strokeWidth=2;strokeColor=#808080;" parent="1" target="QBk_AV415ZBRU6Lw4hZX-36" edge="1">
          <mxGeometry relative="1" as="geometry">
            <Array as="points">
              <mxPoint x="698" y="400" />
              <mxPoint x="698" y="649" />
            </Array>
            <mxPoint x="468" y="400" as="sourcePoint" />
            <mxPoint x="798.5000000000002" y="740.5" as="targetPoint" />
          </mxGeometry>
        </mxCell>
        <mxCell id="UEzPUAAOIrF-is8g5C7q-142" style="edgeStyle=orthogonalEdgeStyle;rounded=0;orthogonalLoop=1;jettySize=auto;html=1;startArrow=open;startFill=0;endArrow=open;endFill=0;strokeWidth=2;strokeColor=#808080;" parent="1" source="QBk_AV415ZBRU6Lw4hZX-1" target="QBk_AV415ZBRU6Lw4hZX-2" edge="1">
          <mxGeometry relative="1" as="geometry">
            <mxPoint x="110" y="377" as="sourcePoint" />
            <mxPoint x="590.5" y="386.5" as="targetPoint" />
            <Array as="points" />
          </mxGeometry>
        </mxCell>
        <mxCell id="UEzPUAAOIrF-is8g5C7q-116" value="Amazon S3" style="outlineConnect=0;fontColor=#232F3E;gradientColor=#60A337;gradientDirection=north;fillColor=#277116;strokeColor=#ffffff;dashed=0;verticalLabelPosition=bottom;verticalAlign=top;align=center;html=1;fontSize=12;fontStyle=0;aspect=fixed;shape=mxgraph.aws4.resourceIcon;resIcon=mxgraph.aws4.s3;labelBackgroundColor=#ffffff;" parent="1" vertex="1">
          <mxGeometry x="800.5000000000002" y="14.5" width="78" height="78" as="geometry" />
        </mxCell>
        <mxCell id="QBk_AV415ZBRU6Lw4hZX-2" value="" style="outlineConnect=0;fontColor=#232F3E;gradientColor=none;fillColor=#232F3E;strokeColor=none;dashed=0;verticalLabelPosition=bottom;verticalAlign=top;align=center;html=1;fontSize=12;fontStyle=0;aspect=fixed;pointerEvents=1;shape=mxgraph.aws4.internet_alt2;" vertex="1" parent="1">
          <mxGeometry x="190" y="337.5" width="78" height="78" as="geometry" />
        </mxCell>
        <mxCell id="QBk_AV415ZBRU6Lw4hZX-15" value="" style="group" vertex="1" connectable="0" parent="1">
          <mxGeometry x="390" y="337.5" width="78" height="102.5" as="geometry" />
        </mxCell>
        <mxCell id="QBk_AV415ZBRU6Lw4hZX-3" value="" style="points=[[0,0,0],[0.25,0,0],[0.5,0,0],[0.75,0,0],[1,0,0],[0,1,0],[0.25,1,0],[0.5,1,0],[0.75,1,0],[1,1,0],[0,0.25,0],[0,0.5,0],[0,0.75,0],[1,0.25,0],[1,0.5,0],[1,0.75,0]];outlineConnect=0;fontColor=#232F3E;gradientColor=#F54749;gradientDirection=north;fillColor=#C7131F;strokeColor=#ffffff;dashed=0;verticalLabelPosition=bottom;verticalAlign=top;align=center;html=1;fontSize=12;fontStyle=0;aspect=fixed;shape=mxgraph.aws4.resourceIcon;resIcon=mxgraph.aws4.identity_and_access_management;" vertex="1" parent="QBk_AV415ZBRU6Lw4hZX-15">
          <mxGeometry width="78" height="78" as="geometry" />
        </mxCell>
        <mxCell id="QBk_AV415ZBRU6Lw4hZX-13" value="IAM" style="text;html=1;resizable=0;autosize=1;align=center;verticalAlign=middle;points=[];fillColor=none;strokeColor=none;rounded=0;" vertex="1" parent="QBk_AV415ZBRU6Lw4hZX-15">
          <mxGeometry x="19" y="82.5" width="40" height="20" as="geometry" />
        </mxCell>
        <mxCell id="QBk_AV415ZBRU6Lw4hZX-18" value="" style="group" vertex="1" connectable="0" parent="1">
          <mxGeometry x="800.5" y="120" width="78" height="100" as="geometry" />
        </mxCell>
        <mxCell id="QBk_AV415ZBRU6Lw4hZX-16" value="" style="points=[[0,0,0],[0.25,0,0],[0.5,0,0],[0.75,0,0],[1,0,0],[0,1,0],[0.25,1,0],[0.5,1,0],[0.75,1,0],[1,1,0],[0,0.25,0],[0,0.5,0],[0,0.75,0],[1,0.25,0],[1,0.5,0],[1,0.75,0]];outlineConnect=0;fontColor=#232F3E;gradientColor=#60A337;gradientDirection=north;fillColor=#277116;strokeColor=#ffffff;dashed=0;verticalLabelPosition=bottom;verticalAlign=top;align=center;html=1;fontSize=12;fontStyle=0;aspect=fixed;shape=mxgraph.aws4.resourceIcon;resIcon=mxgraph.aws4.glacier;" vertex="1" parent="QBk_AV415ZBRU6Lw4hZX-18">
          <mxGeometry width="78" height="78" as="geometry" />
        </mxCell>
        <mxCell id="QBk_AV415ZBRU6Lw4hZX-17" value="S3 Glacier" style="text;html=1;resizable=0;autosize=1;align=center;verticalAlign=middle;points=[];fillColor=none;strokeColor=none;rounded=0;" vertex="1" parent="QBk_AV415ZBRU6Lw4hZX-18">
          <mxGeometry x="4" y="80" width="70" height="20" as="geometry" />
        </mxCell>
        <mxCell id="QBk_AV415ZBRU6Lw4hZX-22" value="" style="group" vertex="1" connectable="0" parent="1">
          <mxGeometry x="800.5" y="230" width="78" height="107.5" as="geometry" />
        </mxCell>
        <mxCell id="QBk_AV415ZBRU6Lw4hZX-19" value="" style="points=[[0,0,0],[0.25,0,0],[0.5,0,0],[0.75,0,0],[1,0,0],[0,1,0],[0.25,1,0],[0.5,1,0],[0.75,1,0],[1,1,0],[0,0.25,0],[0,0.5,0],[0,0.75,0],[1,0.25,0],[1,0.5,0],[1,0.75,0]];outlineConnect=0;fontColor=#232F3E;gradientColor=#60A337;gradientDirection=north;fillColor=#277116;strokeColor=#ffffff;dashed=0;verticalLabelPosition=bottom;verticalAlign=top;align=center;html=1;fontSize=12;fontStyle=0;aspect=fixed;shape=mxgraph.aws4.resourceIcon;resIcon=mxgraph.aws4.elastic_block_store;" vertex="1" parent="QBk_AV415ZBRU6Lw4hZX-22">
          <mxGeometry width="78" height="78" as="geometry" />
        </mxCell>
        <mxCell id="QBk_AV415ZBRU6Lw4hZX-20" value="EBS" style="text;html=1;resizable=0;autosize=1;align=center;verticalAlign=middle;points=[];fillColor=none;strokeColor=none;rounded=0;" vertex="1" parent="QBk_AV415ZBRU6Lw4hZX-22">
          <mxGeometry x="19" y="87.5" width="40" height="20" as="geometry" />
        </mxCell>
        <mxCell id="QBk_AV415ZBRU6Lw4hZX-24" value="" style="group" vertex="1" connectable="0" parent="1">
          <mxGeometry x="24" y="337.5" width="90" height="102.5" as="geometry" />
        </mxCell>
        <mxCell id="QBk_AV415ZBRU6Lw4hZX-1" value="" style="outlineConnect=0;fontColor=#232F3E;gradientColor=none;fillColor=#232F3E;strokeColor=none;dashed=0;verticalLabelPosition=bottom;verticalAlign=top;align=center;html=1;fontSize=12;fontStyle=0;aspect=fixed;pointerEvents=1;shape=mxgraph.aws4.user;" vertex="1" parent="QBk_AV415ZBRU6Lw4hZX-24">
          <mxGeometry x="6" width="78" height="78" as="geometry" />
        </mxCell>
        <mxCell id="QBk_AV415ZBRU6Lw4hZX-23" value="Administrator" style="text;html=1;resizable=0;autosize=1;align=center;verticalAlign=middle;points=[];fillColor=none;strokeColor=none;rounded=0;" vertex="1" parent="QBk_AV415ZBRU6Lw4hZX-24">
          <mxGeometry y="82.5" width="90" height="20" as="geometry" />
        </mxCell>
        <mxCell id="QBk_AV415ZBRU6Lw4hZX-27" value="" style="group" vertex="1" connectable="0" parent="1">
          <mxGeometry x="800.5" y="362" width="78" height="108" as="geometry" />
        </mxCell>
        <mxCell id="QBk_AV415ZBRU6Lw4hZX-25" value="" style="points=[[0,0,0],[0.25,0,0],[0.5,0,0],[0.75,0,0],[1,0,0],[0,1,0],[0.25,1,0],[0.5,1,0],[0.75,1,0],[1,1,0],[0,0.25,0],[0,0.5,0],[0,0.75,0],[1,0.25,0],[1,0.5,0],[1,0.75,0]];outlineConnect=0;fontColor=#232F3E;gradientColor=#F78E04;gradientDirection=north;fillColor=#D05C17;strokeColor=#ffffff;dashed=0;verticalLabelPosition=bottom;verticalAlign=top;align=center;html=1;fontSize=12;fontStyle=0;aspect=fixed;shape=mxgraph.aws4.resourceIcon;resIcon=mxgraph.aws4.elastic_beanstalk;" vertex="1" parent="QBk_AV415ZBRU6Lw4hZX-27">
          <mxGeometry width="78" height="78" as="geometry" />
        </mxCell>
        <mxCell id="QBk_AV415ZBRU6Lw4hZX-26" value="Beanstalk" style="text;html=1;resizable=0;autosize=1;align=center;verticalAlign=middle;points=[];fillColor=none;strokeColor=none;rounded=0;" vertex="1" parent="QBk_AV415ZBRU6Lw4hZX-27">
          <mxGeometry x="4" y="88" width="70" height="20" as="geometry" />
        </mxCell>
        <mxCell id="QBk_AV415ZBRU6Lw4hZX-34" value="" style="group" vertex="1" connectable="0" parent="1">
          <mxGeometry x="800.5" y="482" width="78" height="108" as="geometry" />
        </mxCell>
        <mxCell id="QBk_AV415ZBRU6Lw4hZX-28" value="" style="points=[[0,0,0],[0.25,0,0],[0.5,0,0],[0.75,0,0],[1,0,0],[0,1,0],[0.25,1,0],[0.5,1,0],[0.75,1,0],[1,1,0],[0,0.25,0],[0,0.5,0],[0,0.75,0],[1,0.25,0],[1,0.5,0],[1,0.75,0]];outlineConnect=0;fontColor=#232F3E;gradientColor=#945DF2;gradientDirection=north;fillColor=#5A30B5;strokeColor=#ffffff;dashed=0;verticalLabelPosition=bottom;verticalAlign=top;align=center;html=1;fontSize=12;fontStyle=0;aspect=fixed;shape=mxgraph.aws4.resourceIcon;resIcon=mxgraph.aws4.cloudfront;" vertex="1" parent="QBk_AV415ZBRU6Lw4hZX-34">
          <mxGeometry width="78" height="78" as="geometry" />
        </mxCell>
        <mxCell id="QBk_AV415ZBRU6Lw4hZX-29" value="CloudFront" style="text;html=1;resizable=0;autosize=1;align=center;verticalAlign=middle;points=[];fillColor=none;strokeColor=none;rounded=0;" vertex="1" parent="QBk_AV415ZBRU6Lw4hZX-34">
          <mxGeometry x="4" y="88" width="70" height="20" as="geometry" />
        </mxCell>
        <mxCell id="QBk_AV415ZBRU6Lw4hZX-41" value="" style="group" vertex="1" connectable="0" parent="1">
          <mxGeometry x="764.5" y="740" width="150" height="107" as="geometry" />
        </mxCell>
        <mxCell id="QBk_AV415ZBRU6Lw4hZX-37" value="" style="points=[[0,0,0],[0.25,0,0],[0.5,0,0],[0.75,0,0],[1,0,0],[0,1,0],[0.25,1,0],[0.5,1,0],[0.75,1,0],[1,1,0],[0,0.25,0],[0,0.5,0],[0,0.75,0],[1,0.25,0],[1,0.5,0],[1,0.75,0]];outlineConnect=0;fontColor=#232F3E;gradientColor=#F54749;gradientDirection=north;fillColor=#C7131F;strokeColor=#ffffff;dashed=0;verticalLabelPosition=bottom;verticalAlign=top;align=center;html=1;fontSize=12;fontStyle=0;aspect=fixed;shape=mxgraph.aws4.resourceIcon;resIcon=mxgraph.aws4.key_management_service;" vertex="1" parent="QBk_AV415ZBRU6Lw4hZX-41">
          <mxGeometry x="36" width="78" height="78" as="geometry" />
        </mxCell>
        <mxCell id="QBk_AV415ZBRU6Lw4hZX-40" value="Key Management Service" style="text;html=1;resizable=0;autosize=1;align=center;verticalAlign=middle;points=[];fillColor=none;strokeColor=none;rounded=0;" vertex="1" parent="QBk_AV415ZBRU6Lw4hZX-41">
          <mxGeometry y="87" width="150" height="20" as="geometry" />
        </mxCell>
        <mxCell id="QBk_AV415ZBRU6Lw4hZX-42" value="" style="group" vertex="1" connectable="0" parent="1">
          <mxGeometry x="779.5" y="610" width="120" height="110" as="geometry" />
        </mxCell>
        <mxCell id="QBk_AV415ZBRU6Lw4hZX-36" value="" style="points=[[0,0,0],[0.25,0,0],[0.5,0,0],[0.75,0,0],[1,0,0],[0,1,0],[0.25,1,0],[0.5,1,0],[0.75,1,0],[1,1,0],[0,0.25,0],[0,0.5,0],[0,0.75,0],[1,0.25,0],[1,0.5,0],[1,0.75,0]];outlineConnect=0;fontColor=#232F3E;gradientColor=#F54749;gradientDirection=north;fillColor=#C7131F;strokeColor=#ffffff;dashed=0;verticalLabelPosition=bottom;verticalAlign=top;align=center;html=1;fontSize=12;fontStyle=0;aspect=fixed;shape=mxgraph.aws4.resourceIcon;resIcon=mxgraph.aws4.certificate_manager_3;" vertex="1" parent="QBk_AV415ZBRU6Lw4hZX-42">
          <mxGeometry x="21" width="78" height="78" as="geometry" />
        </mxCell>
        <mxCell id="QBk_AV415ZBRU6Lw4hZX-39" value="Certificate Manager" style="text;html=1;resizable=0;autosize=1;align=center;verticalAlign=middle;points=[];fillColor=none;strokeColor=none;rounded=0;" vertex="1" parent="QBk_AV415ZBRU6Lw4hZX-42">
          <mxGeometry y="90" width="120" height="20" as="geometry" />
        </mxCell>
        <mxCell id="QBk_AV415ZBRU6Lw4hZX-43" value="" style="points=[[0,0,0],[0.25,0,0],[0.5,0,0],[0.75,0,0],[1,0,0],[0,1,0],[0.25,1,0],[0.5,1,0],[0.75,1,0],[1,1,0],[0,0.25,0],[0,0.5,0],[0,0.75,0],[1,0.25,0],[1,0.5,0],[1,0.75,0]];outlineConnect=0;fontColor=#232F3E;gradientColor=#4D72F3;gradientDirection=north;fillColor=#3334B9;strokeColor=#ffffff;dashed=0;verticalLabelPosition=bottom;verticalAlign=top;align=center;html=1;fontSize=12;fontStyle=0;aspect=fixed;shape=mxgraph.aws4.resourceIcon;resIcon=mxgraph.aws4.database;" vertex="1" parent="1">
          <mxGeometry x="805" y="870" width="78" height="78" as="geometry" />
        </mxCell>
        <mxCell id="QBk_AV415ZBRU6Lw4hZX-44" value="Mysql" style="text;html=1;resizable=0;autosize=1;align=center;verticalAlign=middle;points=[];fillColor=none;strokeColor=none;rounded=0;" vertex="1" parent="1">
          <mxGeometry x="814.5" y="960" width="50" height="20" as="geometry" />
        </mxCell>
        <mxCell id="QBk_AV415ZBRU6Lw4hZX-45" style="edgeStyle=orthogonalEdgeStyle;rounded=0;orthogonalLoop=1;jettySize=auto;html=1;startArrow=open;startFill=0;endArrow=open;endFill=0;strokeWidth=2;strokeColor=#808080;entryX=0;entryY=0.5;entryDx=0;entryDy=0;entryPerimeter=0;" edge="1" parent="1" target="QBk_AV415ZBRU6Lw4hZX-37">
          <mxGeometry relative="1" as="geometry">
            <Array as="points">
              <mxPoint x="680" y="412" />
              <mxPoint x="680" y="779" />
            </Array>
            <mxPoint x="468" y="411.5" as="sourcePoint" />
            <mxPoint x="800.5" y="660.5" as="targetPoint" />
          </mxGeometry>
        </mxCell>
        <mxCell id="QBk_AV415ZBRU6Lw4hZX-46" style="edgeStyle=orthogonalEdgeStyle;rounded=0;orthogonalLoop=1;jettySize=auto;html=1;startArrow=open;startFill=0;endArrow=open;endFill=0;strokeWidth=2;strokeColor=#808080;" edge="1" parent="1">
          <mxGeometry relative="1" as="geometry">
            <Array as="points">
              <mxPoint x="474.5" y="422.5" />
              <mxPoint x="659.5" y="422.5" />
              <mxPoint x="659.5" y="907.5" />
            </Array>
            <mxPoint x="475" y="423" as="sourcePoint" />
            <mxPoint x="800" y="908" as="targetPoint" />
          </mxGeometry>
        </mxCell>
      </root>
    </mxGraphModel>
  </diagram>
</mxfile>
